<svg width="175" height="31" viewBox="0 0 175 31" fill="none" xmlns="http://www.w3.org/2000/svg">
<path d="M20.8639 15.0849V15.5C20.8639 21.5894 18.0961 24.7724 12.8371 24.7724C9.23888 24.7724 6.6094 22.9733 5.64065 19.2367L5.22547 19.3751C5.64065 22.0045 5.91743 23.6653 5.91743 25.6028V30.5849H0.796875V6.08929H5.91743C5.91743 7.19643 5.64065 8.85716 5.22547 11.2098L5.64065 11.3482C6.6094 7.47322 9.23888 5.8125 12.8371 5.8125C18.0961 5.8125 20.8639 8.99555 20.8639 15.0849ZM5.91743 14.6697V15.9152C5.91743 20.067 7.71655 22.5581 10.8996 22.5581C14.0826 22.5581 15.7434 20.4822 15.7434 16.0536V14.3929C15.7434 9.9643 14.0826 7.8884 10.8996 7.8884C7.71655 8.0268 5.91743 10.5179 5.91743 14.6697Z" fill="#121212"/>
<path d="M22.9375 20.3435C22.9375 16.7453 25.9822 15.3614 31.1027 14.531L36.2233 13.5623V10.9328C36.2233 8.16491 35.1161 7.05776 32.625 7.05776C29.7188 7.05776 28.6116 8.71848 28.6116 13.0087L23.3527 12.4551C23.2143 8.02652 26.2589 5.67383 32.4866 5.67383C38.4376 5.67383 41.2054 7.61134 41.2054 11.7631V21.1739C41.2054 22.4194 41.759 22.5578 43.1429 22.1426L43.0046 23.5266C42.3126 24.4953 41.3438 24.9105 40.0983 24.9105C37.0536 24.9105 36.2233 23.3882 36.7768 19.9284L36.3617 19.79C35.2545 22.973 32.3483 24.9105 28.4732 24.9105C24.875 24.9105 22.9375 23.2498 22.9375 20.3435ZM36.0849 16.8837V14.9462L32.9018 15.6382C29.7188 16.3301 28.0581 17.2989 28.0581 19.6516V19.79C28.0581 21.4507 29.0268 22.4194 30.9643 22.4194C33.7322 22.4194 36.0849 20.2051 36.0849 16.8837Z" fill="#121212"/>
<path d="M45.3594 24.4951V6.08873H50.4799C50.4799 7.61106 50.3415 8.99499 49.788 12.4548L50.2031 12.5932C51.5871 7.47266 53.3862 5.95034 57.8148 5.53516L58.3684 9.82535C51.8639 10.2405 50.4799 11.4861 50.4799 16.6066V24.4951H45.3594Z" fill="#121212"/>
<path d="M60.5859 24.4956V0H65.7065V8.85718C65.7065 11.2099 65.5681 12.5938 65.2913 14.6697L65.5681 14.8081L75.394 6.08931H78.1619L72.211 11.625L78.4387 24.4956H72.7646L68.1976 14.6697L65.7065 16.884V24.3572H60.5859V24.4956Z" fill="#121212"/>
<path d="M84.2478 24.4962L78.2969 6.08984H83.4174L86.3237 15.7774C86.8773 17.7149 87.2924 19.3756 87.7076 21.3131H88.1228C88.538 19.3756 88.9532 17.7149 89.3684 15.9158L91.9978 6.22824H96.288L99.0559 15.9158C99.6095 17.7149 100.025 19.3756 100.44 21.4515H100.855C101.27 19.514 101.824 17.8533 102.377 15.9158L105.422 6.22824H107.636L101.824 24.4962H96.98L94.2121 15.5006C93.7969 14.1167 93.3818 12.4559 92.9666 10.2416H92.5514C92.1362 12.3175 91.721 14.1167 91.3059 15.5006L88.8148 24.6346H84.2478V24.4962Z" fill="#121212"/>
<path d="M108.328 20.3435C108.328 16.7453 111.373 15.3614 116.493 14.531L121.614 13.5623V10.9328C121.614 8.16491 120.507 7.05776 118.016 7.05776C115.109 7.05776 114.002 8.71848 114.002 13.0087L108.743 12.4551C108.605 8.02652 111.65 5.67383 117.877 5.67383C123.828 5.67383 126.596 7.61134 126.596 11.7631V21.1739C126.596 22.4194 127.15 22.5578 128.534 22.1426L128.395 23.5266C127.703 24.4953 126.734 24.9105 125.489 24.9105C122.444 24.9105 121.614 23.3882 122.167 19.9284L121.752 19.79C120.645 23.1114 117.739 24.9105 114.002 24.9105C110.404 24.9105 108.328 23.2498 108.328 20.3435ZM121.614 16.8837V14.9462L118.431 15.6382C115.248 16.3301 113.587 17.2989 113.587 19.6516V19.79C113.587 21.4507 114.556 22.4194 116.493 22.4194C119.261 22.4194 121.614 20.2051 121.614 16.8837Z" fill="#121212"/>
<path d="M128.812 26.7105L132.134 26.5721C135.455 26.4337 136.009 26.1569 136.424 25.3265L136.839 24.4962L127.844 6.08984H133.518L137.531 15.0854C138.085 16.4694 138.638 17.7149 139.192 19.3756H139.607C140.161 17.7149 140.576 16.4694 141.13 15.0854L144.589 6.08984H146.942L139.607 23.5274C137.116 29.3399 135.455 30.5855 129.228 31.0007L128.812 26.7105Z" fill="#121212"/>
<path d="M153.859 24.4962H173.234C173.788 24.4962 174.203 24.081 174.203 23.5274V17.7149C166.176 17.7149 159.672 11.2104 159.672 3.18359H153.859C153.306 3.18359 152.891 3.59877 152.891 4.15235V23.5274C152.891 23.9426 153.306 24.4962 153.859 24.4962ZM168.391 20.4828H156.766V8.99612C158.565 14.3935 162.855 18.6837 168.391 20.4828Z" fill="#F9956B"/>
</svg>
